<?xml version="1.0" standalone="no"?>
<!DOCTYPE svg PUBLIC "-//W3C//DTD SVG 20010904//EN"
 "http://www.w3.org/TR/2001/REC-SVG-20010904/DTD/svg10.dtd">
<svg version="1.0" xmlns="http://www.w3.org/2000/svg"
 width="1024.000000pt" height="1024.000000pt" viewBox="0 0 1024.000000 1024.000000"
 preserveAspectRatio="xMidYMid meet">

<g transform="translate(0.000000,1024.000000) scale(0.100000,-0.100000)"
fill="#000000" stroke="none">
<path d="M0 5120 l0 -5120 5120 0 5120 0 0 5120 0 5120 -5120 0 -5120 0 0
-5120z m7200 4399 c263 -31 548 -123 763 -247 85 -49 234 -159 270 -200 13
-14 37 -22 80 -27 197 -23 423 -142 590 -313 268 -273 387 -604 387 -1082 0
-185 -12 -300 -44 -435 -14 -55 -27 -147 -31 -205 -11 -175 -59 -316 -142
-426 -18 -24 -33 -47 -33 -53 0 -5 24 -37 53 -70 62 -72 110 -149 142 -228 30
-73 65 -245 65 -315 0 -52 1 -55 60 -113 62 -61 142 -169 178 -240 141 -279
153 -697 36 -1217 -54 -241 -105 -353 -248 -552 -6 -9 10 -39 47 -93 105 -149
157 -285 178 -465 34 -294 -67 -578 -290 -810 -181 -190 -346 -274 -776 -398
-228 -65 -1576 -430 -1590 -430 0 0 8 36 19 80 l19 80 51 15 c85 24 293 81
677 185 653 177 942 258 1034 290 239 85 412 205 541 376 251 334 223 789 -66
1087 -33 33 -60 64 -60 67 0 3 18 24 41 45 49 48 116 139 157 215 85 156 169
520 192 829 30 392 -75 698 -298 876 l-62 49 6 46 c7 53 -11 214 -31 282 -36
123 -129 256 -239 342 l-73 57 64 65 c136 139 180 242 193 449 5 89 16 157 33
215 67 231 62 615 -12 884 -112 407 -465 741 -796 751 l-70 3 -78 68 c-406
357 -1047 506 -1628 379 -365 -81 -670 -265 -895 -540 -43 -54 -88 -109 -99
-122 l-20 -25 -65 18 c-106 28 -296 24 -444 -10 -298 -69 -480 -163 -673 -349
-98 -95 -104 -99 -137 -93 -58 11 -56 12 -856 -244 -261 -83 -617 -197 -790
-252 -173 -55 -349 -111 -390 -125 -69 -23 -230 -73 -550 -173 -69 -21 -201
-62 -294 -90 -171 -52 -200 -64 -246 -100 -21 -17 -30 -18 -62 -10 -42 12 -78
51 -78 86 0 46 45 82 138 110 335 100 824 253 1437 449 1379 442 1577 503
1640 511 45 6 57 14 130 84 98 94 177 148 309 211 255 121 608 192 813 162
l61 -9 74 89 c326 401 894 641 1468 621 74 -3 173 -9 220 -15z m-1565 -159
c24 -26 23 -76 -1 -101 -13 -12 -60 -27 -139 -44 -384 -81 -753 -203 -954
-314 -83 -46 -112 -50 -141 -21 -26 26 -26 70 1 104 77 98 560 276 1009 372
139 29 201 30 225 4z m-1704 -229 c32 -32 35 -47 18 -85 -13 -27 -38 -38 -134
-56 -206 -40 -346 -87 -462 -157 -100 -60 -147 -55 -159 17 -8 48 17 78 114
133 126 72 262 117 502 166 75 15 90 13 121 -18z m3197 -6 c123 -18 196 -36
281 -70 209 -85 361 -259 423 -482 21 -74 22 -104 27 -641 l6 -564 24 -19 c29
-23 49 -24 80 -3 44 31 51 69 51 278 l0 195 88 26 c48 14 113 34 145 44 l57
18 1 -216 c1 -119 4 -227 8 -240 3 -13 18 -33 33 -44 24 -18 30 -18 58 -7 65
27 65 31 64 480 -1 343 -4 416 -18 475 -20 84 -71 191 -127 264 -22 29 -38 55
-36 57 10 11 120 -41 184 -85 82 -58 195 -177 242 -254 101 -170 149 -402 138
-667 -15 -328 -129 -540 -347 -643 -118 -56 -232 -45 -320 30 -23 20 -45 32
-48 27 -116 -168 -225 -244 -402 -280 -188 -38 -415 14 -527 119 l-32 30 -11
-29 c-53 -140 -157 -277 -267 -350 -31 -21 -94 -50 -139 -66 -292 -101 -575
16 -660 272 -17 50 -18 112 -22 723 l-3 669 -45 45 c-25 25 -43 47 -40 50 2 3
114 38 248 78 134 40 255 78 271 84 l27 11 0 -728 c0 -672 1 -730 18 -762 30
-62 113 -70 170 -18 54 51 52 24 52 753 0 469 -3 683 -11 698 -6 12 -29 38
-51 58 l-41 36 114 33 c63 18 183 55 267 81 84 27 159 49 167 49 12 0 15 -94
17 -637 l3 -638 24 -39 c14 -22 39 -44 58 -53 31 -12 38 -12 71 4 19 10 45 31
56 46 21 28 21 40 24 599 3 655 4 647 -74 724 -57 58 -194 125 -194 95 0 -4
-75 -6 -167 -3 -260 7 -439 -16 -680 -87 -204 -61 -361 -145 -520 -281 -40
-33 -73 -57 -73 -51 0 5 -18 32 -40 60 -22 28 -40 57 -40 66 0 9 15 46 34 83
190 374 636 607 1166 611 74 0 181 -6 238 -14z m-4965 -387 c28 -32 21 -58
-42 -153 -125 -189 -182 -338 -227 -589 -16 -91 -33 -116 -80 -116 -46 0 -74
32 -74 84 0 63 45 260 85 376 62 179 200 399 265 423 23 8 53 -2 73 -25z
m1730 -39 c35 -42 12 -96 -51 -120 -15 -6 -134 -44 -265 -85 -270 -85 -472
-157 -583 -209 -42 -19 -85 -35 -95 -35 -30 0 -59 36 -59 74 0 61 80 109 330
199 106 38 562 184 625 200 34 9 79 -2 98 -24z m-1249 -10 c19 -15 26 -30 26
-54 0 -27 -13 -47 -72 -113 -95 -104 -160 -214 -206 -344 -20 -58 -43 -112
-51 -121 -8 -10 -28 -17 -51 -17 -50 0 -74 34 -67 94 7 60 81 239 133 324 54
86 196 239 227 245 12 2 25 5 28 6 4 0 18 -8 33 -20z m2698 -268 c270 -69 457
-297 514 -625 22 -123 21 -334 -1 -461 -34 -199 -121 -417 -227 -575 -144
-212 -354 -395 -538 -469 -154 -61 -223 -75 -370 -75 -119 -1 -145 3 -220 26
-269 85 -429 299 -470 631 -18 144 -8 415 20 546 113 531 450 905 900 1001
119 26 294 26 392 1z m-1382 -424 c0 -2 -8 -28 -19 -58 -10 -30 -24 -88 -30
-129 -7 -41 -39 -196 -71 -345 -33 -148 -75 -342 -94 -430 -80 -371 -245
-1104 -317 -1410 -22 -93 -49 -208 -60 -255 -39 -165 -36 -158 -77 -169 -20
-6 -106 -33 -191 -61 -84 -27 -159 -50 -166 -50 -17 0 -9 -32 -136 600 -60
300 -110 549 -112 553 -1 5 -29 -114 -61 -265 -32 -150 -84 -392 -116 -538
-32 -146 -70 -323 -85 -395 -15 -71 -28 -135 -30 -141 -2 -7 -28 -20 -57 -29
-29 -10 -111 -40 -182 -67 -70 -27 -130 -47 -132 -45 -5 5 -197 891 -265 1227
-104 510 -181 856 -199 898 -33 75 -115 162 -235 248 l-29 22 104 32 c58 17
206 63 329 101 123 38 227 69 232 69 4 0 -1 -21 -13 -47 -25 -56 -23 -82 22
-358 16 -104 49 -305 71 -445 120 -754 168 -1035 175 -1027 2 2 24 109 49 238
25 129 61 311 81 404 19 94 37 183 40 199 4 20 15 32 35 39 34 13 35 17 9 115
-10 43 -55 232 -99 422 -44 190 -85 360 -90 378 -15 50 -48 98 -84 121 -23 14
-28 21 -17 25 22 9 404 127 414 129 5 1 17 -39 26 -88 22 -113 80 -356 89
-373 4 -6 28 99 55 235 26 137 51 259 55 272 6 22 31 32 217 92 115 37 211 66
212 64 2 -2 -8 -42 -22 -88 -32 -105 -263 -1050 -280 -1144 -5 -31 -5 -32 21
-22 33 12 53 5 53 -18 1 -47 138 -666 143 -643 3 14 17 106 32 205 32 218 104
601 224 1190 108 535 106 515 65 565 -15 17 -25 32 -23 34 2 2 65 22 139 45
74 23 191 59 260 81 125 39 140 43 140 37z m-2858 -1042 c27 -24 78 -60 113
-80 35 -19 67 -40 71 -46 3 -6 19 -113 35 -238 46 -368 105 -816 149 -1136 87
-627 100 -724 116 -847 l17 -127 -41 -58 c-102 -141 -171 -294 -204 -453 -16
-77 -19 -120 -15 -225 6 -149 23 -225 77 -340 82 -177 219 -308 396 -380 l52
-21 -56 -85 c-249 -376 -282 -908 -82 -1326 67 -141 138 -241 250 -353 106
-106 209 -179 346 -245 318 -154 742 -205 1045 -125 l70 18 36 -57 c55 -87
154 -209 225 -278 71 -69 257 -204 342 -249 31 -16 56 -32 56 -35 0 -3 -50 -9
-111 -12 -131 -8 -140 -5 -255 80 -103 77 -212 185 -294 291 -60 78 -66 83
-95 78 -303 -55 -662 -16 -967 104 -207 82 -363 184 -508 330 -279 282 -420
630 -420 1033 0 269 60 515 175 720 15 26 26 49 24 50 -113 66 -231 173 -299
272 -48 70 -105 200 -130 295 -27 103 -38 329 -21 436 26 168 101 359 195 499
l48 70 -12 105 c-6 58 -40 314 -76 570 -36 256 -78 566 -94 690 -85 664 -114
866 -127 882 -8 9 -50 31 -94 48 -95 39 -134 77 -125 123 18 89 103 99 188 22z
m6343 -342 c48 -11 113 -17 205 -17 l135 -1 -95 -32 c-52 -18 -110 -33 -129
-33 -36 0 -158 55 -201 90 -21 18 -22 20 -5 16 11 -3 52 -13 90 -23z m825
-196 l0 -154 -77 -22 c-43 -12 -156 -45 -250 -73 l-173 -51 0 -243 c0 -134 2
-244 5 -244 10 0 310 72 504 121 241 60 321 91 375 144 61 59 81 106 81 190 0
58 -6 82 -33 140 -18 39 -45 82 -59 97 -41 43 -18 45 42 3 282 -194 254 -604
-53 -759 -47 -24 -136 -50 -312 -92 -176 -41 -270 -81 -347 -148 -50 -42 -85
-56 -178 -69 -19 -2 -20 -10 -20 -284 0 -365 -11 -350 218 -293 157 39 239 66
307 100 l55 28 2 -85 c2 -66 8 -97 28 -140 14 -30 25 -57 25 -59 0 -7 -564
-162 -690 -189 -150 -32 -247 7 -296 120 -16 37 -18 108 -21 875 -2 459 -6
844 -8 855 -2 11 -25 41 -50 67 -37 39 -42 48 -28 52 10 3 117 32 238 66 121
33 326 91 455 129 129 38 241 69 248 70 9 1 12 -36 12 -152z m-2134 42 c50
-53 146 -116 219 -143 78 -30 211 -56 294 -57 l56 -1 -90 -30 c-156 -52 -234
-48 -368 19 -56 28 -128 91 -157 137 -17 28 -18 37 -8 69 6 20 14 37 18 37 3
0 19 -14 36 -31z m-4520 -464 c20 -93 39 -185 41 -202 3 -18 8 -31 12 -28 4 2
5 -10 3 -27 -4 -23 -2 -29 8 -23 10 6 12 1 8 -18 -3 -15 -1 -24 3 -21 5 3 9 2
9 -1 0 -12 148 -706 180 -845 17 -73 27 -136 23 -140 -4 -4 -33 -28 -64 -53
l-56 -44 -21 151 c-12 83 -44 295 -72 471 -129 819 -181 1164 -179 1194 1 24
64 -221 105 -414z m2692 156 c154 -104 286 -144 482 -145 183 -1 330 31 485
106 33 16 65 26 73 23 7 -2 10 0 7 5 -9 15 7 12 31 -4 19 -14 27 -12 80 16 32
17 93 52 134 78 106 65 118 68 81 22 -77 -98 -234 -213 -379 -277 -120 -52
-169 -68 -301 -96 -132 -27 -314 -23 -431 11 -166 48 -335 163 -408 278 -23
35 -72 157 -72 177 0 2 35 -32 78 -74 42 -43 105 -97 140 -120z m2883 -458 c1
-318 3 -783 5 -1033 l3 -455 -172 -49 c-94 -27 -176 -48 -182 -48 -21 2 -25
84 -25 602 0 305 -3 530 -8 525 -5 -6 -51 -107 -101 -226 -97 -225 -107 -246
-114 -239 -3 3 -51 84 -107 180 -55 96 -104 178 -108 182 -4 4 -6 -251 -4
-566 l4 -573 -154 -42 c-84 -23 -163 -46 -174 -51 -19 -7 -23 -5 -30 18 -4 15
-10 441 -13 947 -5 704 -9 925 -18 942 -7 12 -31 37 -54 56 -22 19 -37 37 -32
40 15 8 424 120 427 116 1 -2 60 -119 130 -259 71 -140 132 -259 136 -263 7
-9 63 141 171 462 l71 211 42 11 c22 6 97 28 166 49 69 21 128 39 133 39 4 1
7 -259 8 -576z m-1026 447 c6 -9 -132 -56 -140 -48 -2 2 7 27 20 55 l25 52 45
-26 c25 -13 47 -29 50 -33z m2200 -97 c30 -15 55 -30 55 -34 0 -5 -175 -57
-332 -98 l-38 -9 0 47 0 47 128 36 c70 20 128 37 129 37 2 1 27 -11 58 -26z
m-4076 -228 c0 -11 -12 -67 -27 -125 l-27 -104 -59 -18 c-33 -10 -60 -17 -61
-16 -2 3 73 326 80 346 7 19 94 -58 94 -83z m177 -59 c32 -13 88 -30 124 -37
l65 -13 -145 -47 c-80 -25 -146 -46 -147 -45 -2 2 26 137 32 154 6 15 1 16 71
-12z m1157 3 c52 -14 101 -60 126 -119 22 -50 22 -53 19 -723 -3 -671 -3 -672
-26 -727 -49 -122 -167 -242 -302 -310 -140 -70 -381 -137 -530 -147 -171 -11
-278 40 -340 161 l-35 69 -3 610 c-2 403 1 627 8 661 35 168 147 287 343 365
90 36 433 137 527 156 81 16 164 18 213 4z m3177 -370 c-74 -68 -227 -133
-334 -144 l-51 -5 65 18 c144 41 223 75 300 131 70 51 77 51 20 0z m414 -104
c45 -219 20 -447 -73 -665 -43 -100 -85 -166 -169 -272 -134 -165 -320 -292
-647 -438 -149 -67 -418 -149 -1100 -335 -1492 -407 -2013 -595 -2465 -890
-238 -155 -402 -313 -535 -515 -78 -118 -90 -143 -127 -248 -46 -134 -61 -231
-55 -357 18 -378 243 -627 567 -627 186 0 321 70 406 210 1 2 44 -17 96 -42
91 -44 265 -105 301 -106 25 0 21 -18 -21 -89 -45 -78 -164 -207 -252 -273
-86 -66 -224 -131 -335 -159 -129 -33 -342 -33 -470 0 -181 46 -358 147 -488
278 -234 235 -357 540 -357 887 0 468 201 849 655 1241 304 262 807 512 1420
704 343 107 1226 337 1970 512 414 98 520 124 681 169 326 93 498 185 660 352
179 185 288 419 301 646 3 57 10 99 14 95 5 -5 15 -40 23 -78z m-309 -130
c-19 -112 -104 -279 -188 -370 -52 -58 -62 -65 -68 -49 -4 11 -8 93 -8 184
l-1 165 78 35 c42 19 104 53 137 76 33 23 61 41 62 40 1 -1 -5 -37 -12 -81z
m-4758 20 c189 -56 240 -257 114 -452 -47 -73 -146 -156 -221 -184 -157 -61
-330 -17 -330 82 0 28 2 29 51 29 63 0 110 26 133 74 20 42 20 59 1 96 -29 56
-140 64 -247 18 -53 -23 -148 -93 -180 -134 -25 -32 -58 -45 -391 -158 -454
-155 -610 -219 -749 -308 -163 -105 -230 -226 -179 -325 23 -46 62 -73 136
-96 70 -21 89 -24 368 -47 285 -24 390 -46 514 -108 237 -120 349 -344 322
-645 -12 -127 -48 -249 -113 -382 -123 -251 -377 -476 -655 -581 -88 -34 -227
-71 -235 -63 -9 9 -26 164 -26 237 l0 77 70 39 c81 46 196 148 269 239 155
196 217 438 148 579 -50 102 -155 174 -307 211 -36 9 -137 26 -225 37 -350 45
-436 70 -551 164 -93 75 -151 174 -174 297 -23 121 -8 213 57 348 39 82 58
108 142 191 188 189 360 267 1198 544 421 139 577 186 718 217 102 22 273 24
342 4z m4213 -90 c0 -4 -6 -18 -14 -33 -30 -58 -97 -98 -217 -132 -41 -11 -77
-20 -81 -20 -5 0 -8 26 -8 58 l0 59 153 36 c170 40 167 39 167 32z m-4170
-786 c74 -35 125 -81 158 -143 25 -47 27 -60 27 -171 0 -147 -23 -229 -97
-342 -87 -133 -209 -242 -371 -332 -71 -39 -218 -104 -222 -99 -1 2 -10 37
-19 78 -9 41 -34 113 -54 160 l-38 86 115 64 c192 108 311 245 298 343 -7 50
-55 100 -114 117 -133 38 -557 47 -728 16 -163 -30 -332 -92 -412 -153 -31
-22 -33 -23 -33 -5 0 42 97 146 183 196 192 113 712 217 1067 213 176 -2 188
-3 240 -28z m-2644 -529 c24 -105 86 -221 160 -300 109 -115 221 -174 407
-215 l78 -17 -34 -18 c-18 -10 -49 -28 -68 -39 -44 -27 -71 -26 -166 4 -91 29
-215 106 -268 168 -85 98 -134 218 -142 348 -6 88 8 241 15 169 2 -19 10 -64
18 -100z m1996 113 c48 -9 88 -20 88 -23 0 -4 -21 -21 -46 -40 l-46 -33 -96
46 c-54 25 -113 50 -132 56 -65 17 135 13 232 -6z m1093 -243 c80 -61 191
-114 268 -130 l59 -12 -49 -25 c-101 -55 -106 -55 -160 -27 -87 46 -159 131
-184 216 -4 15 -6 28 -4 28 2 0 33 -22 70 -50z m4268 -70 c51 -16 73 -30 110
-69 136 -145 166 -379 75 -581 -35 -79 -121 -192 -185 -246 -187 -156 -318
-204 -1178 -433 -276 -73 -818 -219 -1000 -269 -259 -72 -699 -189 -777 -207
-37 -8 -74 -18 -82 -21 -14 -5 -16 14 -16 163 l0 169 188 53 c283 80 818 226
1397 383 856 231 916 250 1052 334 88 55 146 118 187 204 27 57 31 75 31 150
0 69 -4 93 -23 128 -41 77 -99 130 -194 176 l-88 43 53 7 c28 3 90 12 137 20
127 21 236 20 313 -4z m-705 -156 c-196 -35 -705 -173 -1733 -469 -328 -94
-604 -179 -944 -291 -74 -24 -136 -42 -138 -40 -8 8 315 137 497 199 255 87
819 255 1310 392 74 20 164 45 200 56 115 33 502 127 590 143 106 19 137 23
225 24 l70 0 -77 -14z m220 -286 c-13 -23 -38 -56 -55 -74 -45 -45 -156 -80
-1033 -323 -356 -98 -724 -201 -1080 -303 -455 -130 -460 -132 -463 -127 -50
76 -78 121 -75 123 14 9 1819 510 2228 618 124 32 493 127 498 128 2 0 -7 -19
-20 -42z m-5790 -23 c86 -36 134 -105 147 -210 l6 -50 -57 -24 c-147 -63 -302
-276 -349 -481 -26 -110 -24 -290 4 -400 27 -106 87 -225 149 -297 57 -66 164
-123 277 -148 136 -31 383 -11 517 40 12 5 16 -9 22 -75 6 -74 24 -185 41
-251 8 -31 -6 -38 -130 -68 -142 -35 -278 -46 -408 -33 -290 30 -516 126 -697
298 -251 239 -364 570 -320 934 39 319 219 607 454 727 121 61 253 76 344 38z
m1174 -103 c24 -5 35 -11 30 -18 -7 -12 -152 -88 -156 -82 -1 2 0 27 2 56 l4
52 41 -1 c23 0 59 -3 79 -7z m1474 -767 c67 -28 110 -77 125 -143 7 -32 6 -33
-14 -27 -50 17 -129 17 -167 0 -57 -26 -84 -68 -88 -142 -5 -79 20 -134 94
-208 264 -264 829 -257 1188 15 37 27 70 50 73 50 10 0 -8 -119 -27 -175 -33
-97 -93 -198 -159 -268 -156 -165 -344 -241 -596 -241 -310 1 -599 108 -779
290 -148 149 -224 347 -196 506 40 224 223 376 436 364 38 -2 88 -12 110 -21z
m3791 -321 l26 -26 -6 -152 c-12 -287 -72 -511 -192 -716 -82 -140 -132 -175
-186 -131 -36 29 -31 75 18 146 128 189 199 425 210 700 6 147 7 150 34 177
34 35 63 35 96 2z m-420 -120 c25 -25 26 -29 19 -109 -22 -290 -143 -562 -341
-761 -82 -84 -137 -124 -168 -124 -27 0 -67 45 -67 75 0 20 21 48 88 113 203
199 309 419 341 707 8 68 13 83 36 102 34 30 60 29 92 -3z m-457 -124 c82 -82
-113 -509 -232 -510 -37 0 -68 32 -68 72 0 23 13 48 46 90 58 74 108 185 123
268 12 73 34 100 82 100 16 0 38 -9 49 -20z m-3545 -315 c20 -27 56 -69 79
-93 47 -49 41 -62 -31 -62 -36 0 -46 5 -76 40 -42 49 -67 132 -67 221 l0 64
29 -60 c15 -33 45 -82 66 -110z m2827 68 c25 -23 23 -75 -4 -101 -42 -39 -132
-70 -532 -182 -121 -34 -255 -77 -297 -96 -89 -39 -111 -42 -139 -14 -47 47
-7 111 103 164 71 34 158 61 477 150 91 25 197 57 235 70 83 29 132 32 157 9z
m23 -428 c32 -31 33 -74 2 -103 -58 -55 -373 -155 -696 -221 -95 -20 -105 -21
-128 -6 -35 23 -46 60 -28 95 17 33 19 34 260 94 224 56 324 85 445 130 52 19
101 35 108 35 7 1 24 -10 37 -24z"/>
<path d="M4921 7969 c-196 -34 -363 -209 -431 -450 -44 -160 -46 -373 -5 -533
50 -191 181 -332 327 -352 61 -9 164 23 243 74 147 95 251 261 311 497 47 184
31 423 -37 557 -81 159 -234 237 -408 207z m216 -749 c-8 -119 -63 -216 -153
-269 l-34 -20 0 65 c0 70 25 156 62 211 22 32 101 93 121 93 6 0 8 -31 4 -80z"/>
<path d="M5174 5341 c-173 -54 -210 -73 -239 -121 -19 -33 -20 -55 -23 -350
-2 -173 -1 -411 3 -527 7 -208 8 -213 28 -213 36 0 319 80 366 104 24 12 54
34 65 50 21 27 21 38 24 553 2 386 0 529 -9 539 -18 22 -54 16 -215 -35z"/>
</g>
</svg>
